<?xml version="1.0" encoding="UTF-8" standalone="no"?><svg xmlns="http://www.w3.org/2000/svg" xmlns:xlink="http://www.w3.org/1999/xlink" contentStyleType="text/css" height="166px" preserveAspectRatio="none" style="width:1183px;height:166px;background:#EEF9E3;" version="1.1" viewBox="0 0 1183 166" width="1183px" zoomAndPan="magnify"><defs/><g><!--MD5=[dc97dd2d109d72099fe2802760251322]
cluster Front-End--><g id="cluster_Front-End"><path d="M8.5,6 L79.5,6 A3.75,3.75 0 0 1 82,8.5 L89,29.6094 L203.5,29.6094 A2.5,2.5 0 0 1 206,32.1094 L206,156.5 A2.5,2.5 0 0 1 203.5,159 L8.5,159 A2.5,2.5 0 0 1 6,156.5 L6,8.5 A2.5,2.5 0 0 1 8.5,6 " fill="#D3D3D3" style="stroke:#A9A9A9;stroke-width:1.5;"/><line style="stroke:#A9A9A9;stroke-width:1.5;" x1="6" x2="89" y1="29.6094" y2="29.6094"/><text fill="#000000" font-family="sans-serif" font-size="14" font-weight="bold" lengthAdjust="spacing" textLength="70" x="10" y="22.5332">Front-End</text></g><!--MD5=[7446a9910975797c730a8cae2dc7e5bf]
cluster Back-End--><g id="cluster_Back-End"><path d="M398.5,15 L465.5,15 A3.75,3.75 0 0 1 468,17.5 L475,38.6094 L565.5,38.6094 A2.5,2.5 0 0 1 568,41.1094 L568,147.5 A2.5,2.5 0 0 1 565.5,150 L398.5,150 A2.5,2.5 0 0 1 396,147.5 L396,17.5 A2.5,2.5 0 0 1 398.5,15 " fill="#D3D3D3" style="stroke:#A9A9A9;stroke-width:1.5;"/><line style="stroke:#A9A9A9;stroke-width:1.5;" x1="396" x2="475" y1="38.6094" y2="38.6094"/><text fill="#000000" font-family="sans-serif" font-size="14" font-weight="bold" lengthAdjust="spacing" textLength="66" x="400" y="31.5332">Back-End</text></g><!--MD5=[8a63cbc2f1c780ddf3e229d615ddd269]
cluster Infraestrutura--><g id="cluster_Infraestrutura"><path d="M795.5,23.5 L893.5,23.5 A3.75,3.75 0 0 1 896,26 L903,47.1094 L958.5,47.1094 A2.5,2.5 0 0 1 961,49.6094 L961,139 A2.5,2.5 0 0 1 958.5,141.5 L795.5,141.5 A2.5,2.5 0 0 1 793,139 L793,26 A2.5,2.5 0 0 1 795.5,23.5 " fill="#D3D3D3" style="stroke:#A9A9A9;stroke-width:1.5;"/><line style="stroke:#A9A9A9;stroke-width:1.5;" x1="793" x2="903" y1="47.1094" y2="47.1094"/><text fill="#000000" font-family="sans-serif" font-size="14" font-weight="bold" lengthAdjust="spacing" textLength="97" x="797" y="40.0332">Infraestrutura</text></g><!--MD5=[f54f045f7fd4f420f64e19abeb33d08d]
class Bootstrap Framework--><g id="elem_Bootstrap Framework"><rect codeLine="26" fill="#F5F5F5" height="100.8281" id="Bootstrap Framework" rx="2.5" ry="2.5" style="stroke:#A9A9A9;stroke-width:0.5;" width="167" x="22.5" y="42"/><ellipse cx="37.5" cy="58" fill="#ADD1B2" rx="11" ry="11" style="stroke:#181818;stroke-width:1.0;"/><path d="M40.2656,53.875 Q40.4219,53.6563 40.6094,53.5469 Q40.7969,53.4375 41.0156,53.4375 Q41.3906,53.4375 41.625,53.6953 Q41.8594,53.9531 41.8594,54.5625 L41.8594,56.0156 Q41.8594,56.625 41.625,56.8906 Q41.3906,57.1563 41.0156,57.1563 Q40.6719,57.1563 40.4688,56.9531 Q40.2656,56.7656 40.1563,56.25 Q40.1094,55.8906 39.9219,55.7031 Q39.5938,55.3281 38.9844,55.1094 Q38.375,54.8906 37.75,54.8906 Q36.9844,54.8906 36.3516,55.2188 Q35.7188,55.5469 35.2266,56.2969 Q34.7344,57.0469 34.7344,58.0781 L34.7344,59.1719 Q34.7344,60.4063 35.625,61.2266 Q36.5156,62.0469 38.1094,62.0469 Q39.0469,62.0469 39.7031,61.7969 Q40.0938,61.6406 40.5156,61.2031 Q40.7813,60.9375 40.9297,60.8594 Q41.0781,60.7813 41.2813,60.7813 Q41.6094,60.7813 41.8672,61.0391 Q42.125,61.2969 42.125,61.6406 Q42.125,61.9844 41.7813,62.3906 Q41.2813,62.9688 40.4844,63.2969 Q39.4063,63.75 38.1094,63.75 Q36.5938,63.75 35.3906,63.125 Q34.4063,62.625 33.7188,61.5547 Q33.0313,60.4844 33.0313,59.2031 L33.0313,58.0469 Q33.0313,56.7188 33.6484,55.5703 Q34.2656,54.4219 35.3594,53.8047 Q36.4531,53.1875 37.6875,53.1875 Q38.4219,53.1875 39.0703,53.3516 Q39.7188,53.5156 40.2656,53.875 Z " fill="#000000"/><text fill="#333333" font-family="sans-serif" font-size="14" lengthAdjust="spacing" textLength="135" x="51.5" y="63.7285">Bootstrap Framework</text><line style="stroke:#A9A9A9;stroke-width:0.5;" x1="23.5" x2="188.5" y1="74" y2="74"/><ellipse cx="33.5" cy="88.3047" fill="none" rx="3" ry="3" style="stroke:#038048;stroke-width:1.0;"/><text fill="#333333" font-family="sans-serif" font-size="14" lengthAdjust="spacing" textLength="37" x="42.5" y="92.5332">HTML</text><ellipse cx="33.5" cy="105.9141" fill="none" rx="3" ry="3" style="stroke:#038048;stroke-width:1.0;"/><text fill="#333333" font-family="sans-serif" font-size="14" lengthAdjust="spacing" textLength="28" x="42.5" y="110.1426">CSS</text><ellipse cx="33.5" cy="123.5234" fill="none" rx="3" ry="3" style="stroke:#038048;stroke-width:1.0;"/><text fill="#333333" font-family="sans-serif" font-size="14" lengthAdjust="spacing" textLength="65" x="42.5" y="127.752">JavaScript</text><line style="stroke:#A9A9A9;stroke-width:0.5;" x1="23.5" x2="188.5" y1="134.8281" y2="134.8281"/></g><!--MD5=[ce591189955e1fab324b7595fbcac50c]
class Flask Framework--><g id="elem_Flask Framework"><rect codeLine="34" fill="#F5F5F5" height="83.2188" id="Flask Framework" rx="2.5" ry="2.5" style="stroke:#A9A9A9;stroke-width:0.5;" width="140" x="412" y="51"/><ellipse cx="427" cy="67" fill="#ADD1B2" rx="11" ry="11" style="stroke:#181818;stroke-width:1.0;"/><path d="M429.7656,62.875 Q429.9219,62.6563 430.1094,62.5469 Q430.2969,62.4375 430.5156,62.4375 Q430.8906,62.4375 431.125,62.6953 Q431.3594,62.9531 431.3594,63.5625 L431.3594,65.0156 Q431.3594,65.625 431.125,65.8906 Q430.8906,66.1563 430.5156,66.1563 Q430.1719,66.1563 429.9688,65.9531 Q429.7656,65.7656 429.6563,65.25 Q429.6094,64.8906 429.4219,64.7031 Q429.0938,64.3281 428.4844,64.1094 Q427.875,63.8906 427.25,63.8906 Q426.4844,63.8906 425.8516,64.2188 Q425.2188,64.5469 424.7266,65.2969 Q424.2344,66.0469 424.2344,67.0781 L424.2344,68.1719 Q424.2344,69.4063 425.125,70.2266 Q426.0156,71.0469 427.6094,71.0469 Q428.5469,71.0469 429.2031,70.7969 Q429.5938,70.6406 430.0156,70.2031 Q430.2813,69.9375 430.4297,69.8594 Q430.5781,69.7813 430.7813,69.7813 Q431.1094,69.7813 431.3672,70.0391 Q431.625,70.2969 431.625,70.6406 Q431.625,70.9844 431.2813,71.3906 Q430.7813,71.9688 429.9844,72.2969 Q428.9063,72.75 427.6094,72.75 Q426.0938,72.75 424.8906,72.125 Q423.9063,71.625 423.2188,70.5547 Q422.5313,69.4844 422.5313,68.2031 L422.5313,67.0469 Q422.5313,65.7188 423.1484,64.5703 Q423.7656,63.4219 424.8594,62.8047 Q425.9531,62.1875 427.1875,62.1875 Q427.9219,62.1875 428.5703,62.3516 Q429.2188,62.5156 429.7656,62.875 Z " fill="#000000"/><text fill="#333333" font-family="sans-serif" font-size="14" lengthAdjust="spacing" textLength="108" x="441" y="72.7285">Flask Framework</text><line style="stroke:#A9A9A9;stroke-width:0.5;" x1="413" x2="551" y1="83" y2="83"/><ellipse cx="423" cy="97.3047" fill="none" rx="3" ry="3" style="stroke:#038048;stroke-width:1.0;"/><text fill="#333333" font-family="sans-serif" font-size="14" lengthAdjust="spacing" textLength="43" x="432" y="101.5332">SQLite</text><ellipse cx="423" cy="114.9141" fill="none" rx="3" ry="3" style="stroke:#038048;stroke-width:1.0;"/><text fill="#333333" font-family="sans-serif" font-size="14" lengthAdjust="spacing" textLength="62" x="432" y="119.1426">MongoDB</text><line style="stroke:#A9A9A9;stroke-width:0.5;" x1="413" x2="551" y1="126.2188" y2="126.2188"/></g><!--MD5=[45617631838e1331504f259489ec1a7d]
class Docker Platform--><g id="elem_Docker Platform"><rect codeLine="41" fill="#F5F5F5" height="65.6094" id="Docker Platform" rx="2.5" ry="2.5" style="stroke:#A9A9A9;stroke-width:0.5;" width="135" x="809.5" y="59.5"/><ellipse cx="825.4" cy="75.5" fill="#ADD1B2" rx="11" ry="11" style="stroke:#181818;stroke-width:1.0;"/><path d="M828.1656,71.375 Q828.3219,71.1563 828.5094,71.0469 Q828.6969,70.9375 828.9156,70.9375 Q829.2906,70.9375 829.525,71.1953 Q829.7594,71.4531 829.7594,72.0625 L829.7594,73.5156 Q829.7594,74.125 829.525,74.3906 Q829.2906,74.6563 828.9156,74.6563 Q828.5719,74.6563 828.3688,74.4531 Q828.1656,74.2656 828.0563,73.75 Q828.0094,73.3906 827.8219,73.2031 Q827.4938,72.8281 826.8844,72.6094 Q826.275,72.3906 825.65,72.3906 Q824.8844,72.3906 824.2516,72.7188 Q823.6188,73.0469 823.1266,73.7969 Q822.6344,74.5469 822.6344,75.5781 L822.6344,76.6719 Q822.6344,77.9063 823.525,78.7266 Q824.4156,79.5469 826.0094,79.5469 Q826.9469,79.5469 827.6031,79.2969 Q827.9938,79.1406 828.4156,78.7031 Q828.6813,78.4375 828.8297,78.3594 Q828.9781,78.2813 829.1813,78.2813 Q829.5094,78.2813 829.7672,78.5391 Q830.025,78.7969 830.025,79.1406 Q830.025,79.4844 829.6813,79.8906 Q829.1813,80.4688 828.3844,80.7969 Q827.3063,81.25 826.0094,81.25 Q824.4938,81.25 823.2906,80.625 Q822.3063,80.125 821.6188,79.0547 Q820.9313,77.9844 820.9313,76.7031 L820.9313,75.5469 Q820.9313,74.2188 821.5484,73.0703 Q822.1656,71.9219 823.2594,71.3047 Q824.3531,70.6875 825.5875,70.6875 Q826.3219,70.6875 826.9703,70.8516 Q827.6188,71.0156 828.1656,71.375 Z " fill="#000000"/><text fill="#333333" font-family="sans-serif" font-size="14" lengthAdjust="spacing" textLength="101" x="839.6" y="81.2285">Docker Platform</text><line style="stroke:#A9A9A9;stroke-width:0.5;" x1="810.5" x2="943.5" y1="91.5" y2="91.5"/><ellipse cx="820.5" cy="105.8047" fill="none" rx="3" ry="3" style="stroke:#038048;stroke-width:1.0;"/><text fill="#333333" font-family="sans-serif" font-size="14" lengthAdjust="spacing" textLength="109" x="829.5" y="110.0332">Docker Compose</text><line style="stroke:#A9A9A9;stroke-width:0.5;" x1="810.5" x2="943.5" y1="117.1094" y2="117.1094"/></g><g id="elem_GMN8"><path d="M225,55 L225,88.5 L189.79,92.5 L225,96.5 L225,130.4063 A0,0 0 0 0 225,130.4063 L377,130.4063 A0,0 0 0 0 377,130.4063 L377,65 L367,55 L225,55 A0,0 0 0 0 225,55 " fill="#B0C4DE" style="stroke:#181818;stroke-width:0.5;"/><path d="M367,55 L367,65 L377,65 L367,55 " fill="#B0C4DE" style="stroke:#181818;stroke-width:0.5;"/><text fill="#333333" font-family="sans-serif" font-size="13" lengthAdjust="spacing" textLength="131" x="231" y="73.4951">Framework que utiliza:</text><text fill="#333333" font-family="sans-serif" font-size="13" lengthAdjust="spacing" textLength="42" x="231" y="89.8467">- HTML</text><text fill="#333333" font-family="sans-serif" font-size="13" lengthAdjust="spacing" textLength="35" x="231" y="106.1982">- CSS</text><text fill="#333333" font-family="sans-serif" font-size="13" lengthAdjust="spacing" textLength="67" x="231" y="122.5498">- JavaScript</text></g><g id="elem_GMN11"><path d="M587.5,46.5 L587.5,88.5 L552.35,92.5 L587.5,96.5 L587.5,138.2578 A0,0 0 0 0 587.5,138.2578 L774.5,138.2578 A0,0 0 0 0 774.5,138.2578 L774.5,56.5 L764.5,46.5 L587.5,46.5 A0,0 0 0 0 587.5,46.5 " fill="#B0C4DE" style="stroke:#181818;stroke-width:0.5;"/><path d="M764.5,46.5 L764.5,56.5 L774.5,56.5 L764.5,46.5 " fill="#B0C4DE" style="stroke:#181818;stroke-width:0.5;"/><text fill="#333333" font-family="sans-serif" font-size="13" lengthAdjust="spacing" textLength="166" x="593.5" y="64.9951">Microframework que pode se</text><text fill="#333333" font-family="sans-serif" font-size="13" lengthAdjust="spacing" textLength="158" x="593.5" y="81.3467">conectar a diversos bancos</text><text fill="#333333" font-family="sans-serif" font-size="13" lengthAdjust="spacing" textLength="97" x="593.5" y="97.6982">de dados, como:</text><text fill="#333333" font-family="sans-serif" font-size="13" lengthAdjust="spacing" textLength="48" x="593.5" y="114.0498">- SQLite</text><text fill="#333333" font-family="sans-serif" font-size="13" lengthAdjust="spacing" textLength="65" x="593.5" y="130.4014">- MongoDB</text></g><g id="elem_GMN14"><path d="M979.5,63 L979.5,88.5 L944.52,92.5 L979.5,96.5 L979.5,122.0547 A0,0 0 0 0 979.5,122.0547 L1176.5,122.0547 A0,0 0 0 0 1176.5,122.0547 L1176.5,73 L1166.5,63 L979.5,63 A0,0 0 0 0 979.5,63 " fill="#B0C4DE" style="stroke:#181818;stroke-width:0.5;"/><path d="M1166.5,63 L1166.5,73 L1176.5,73 L1166.5,63 " fill="#B0C4DE" style="stroke:#181818;stroke-width:0.5;"/><text fill="#333333" font-family="sans-serif" font-size="13" lengthAdjust="spacing" textLength="176" x="985.5" y="81.4951">Plataforma de contêineres que</text><text fill="#333333" font-family="sans-serif" font-size="13" lengthAdjust="spacing" textLength="172" x="985.5" y="97.8467">pode ser complementada por:</text><text fill="#333333" font-family="sans-serif" font-size="13" lengthAdjust="spacing" textLength="108" x="985.5" y="114.1982">- Docker Compose</text></g><!--MD5=[700c906e86efe273cc6930595bddc3f0]
@startuml

skinparam backgroundColor #EEF9E3

skinparam package {
    BackgroundColor #D3D3D3
    BorderColor #A9A9A9
    FontColor #333333
    Shadowing false
}

skinparam class {
    BackgroundColor #F5F5F5
    BorderColor #A9A9A9
    FontColor #333333
    Shadowing false
}

skinparam note {
    BackgroundColor #B0C4DE
    BorderColor #A9A9A9
    FontColor #333333
    Shadowing false
}

package "Front-End" {
    class "Bootstrap Framework" {
        + HTML
        + CSS
        + JavaScript
    }
}

package "Back-End" {
    class "Flask Framework" {
        + SQLite
        + MongoDB
    }
}

package "Infraestrutura" {
    class "Docker Platform" {
        + Docker Compose
    }
}

note right of "Bootstrap Framework"
    Framework que utiliza:
    - HTML
    - CSS
    - JavaScript
end note

note right of "Flask Framework"
    Microframework que pode se
    conectar a diversos bancos
    de dados, como:
    - SQLite
    - MongoDB
end note

note right of "Docker Platform"
    Plataforma de contêineres que
    pode ser complementada por:
    - Docker Compose
end note

@enduml

PlantUML version 1.2022.7(Mon Aug 22 14:01:30 BRT 2022)
(GPL source distribution)
Java Runtime: Java(TM) SE Runtime Environment
JVM: Java HotSpot(TM) Client VM
Default Encoding: Cp1252
Language: pt
Country: BR
--></g></svg>